<svg width="81" height="80" viewBox="0 0 81 80" fill="none" xmlns="http://www.w3.org/2000/svg">
<g clip-path="url(#clip0_62_145)">
<g filter="url(#filter0_d_62_145)">
<rect x="0.5" width="80" height="80" rx="12" fill="#043F50"/>
<path d="M14.531 69.4994H67.0512C68.986 69.4994 70.5544 67.9184 70.5544 65.9682V13.0305C70.5544 11.0803 68.986 9.49939 67.0512 9.49939L14.531 9.49939C12.5962 9.49939 11.0277 11.0803 11.0277 13.0305L11.0277 65.9682C11.0277 67.9184 12.5962 69.4994 14.531 69.4994Z" fill="#043F50"/>
<path d="M61.4067 20.5646C62.5458 20.5646 63.4692 19.6338 63.4692 18.4857C63.4692 17.3376 62.5458 16.4068 61.4067 16.4068C60.2676 16.4068 59.3442 17.3376 59.3442 18.4857C59.3442 19.6338 60.2676 20.5646 61.4067 20.5646Z" fill="#A10B3F"/>
<path d="M58.6597 18.2577V63.5139H64.1596V18.2577C64.1596 16.7244 62.9309 15.4859 61.4096 15.4859C59.8884 15.4859 58.6597 16.7244 58.6597 18.2577ZM61.4096 20.0638C60.5466 20.0638 59.8372 19.3561 59.8372 18.4789C59.8372 17.6016 60.5393 16.8939 61.4096 16.8939C62.28 16.8939 62.9821 17.6016 62.9821 18.4789C62.9821 19.3561 62.28 20.0638 61.4096 20.0638Z" fill="white"/>
<path d="M55.1794 43.6163V36.2002H47.6316C47.3098 36.1854 46.9807 36.1781 46.6516 36.1781H45.357C39.8863 36.1781 37.9994 38.9278 37.9994 44.5894V63.5205H43.3092V54.9617H46.9514C52.8536 54.9617 55.1867 52.3447 55.1867 46.108V43.7269C55.1867 43.7269 55.1867 43.6606 55.1867 43.6237L55.1794 43.6163ZM49.8769 48.1058C49.8769 49.7498 48.5531 51.0841 46.9222 51.0841H43.3092V51.0251V43.4836C43.3092 41.707 44.7427 40.2695 46.498 40.2695H49.8696V48.1058H49.8769Z" fill="white"/>
<path d="M49.8769 15.5664V28.8284H46.2639C44.633 28.8284 43.3092 27.4941 43.3092 25.8502V15.5664H37.9994V24.7223C37.9994 31.733 41.1516 33.0009 45.1815 33.0009C47.127 33.0009 55.1794 33.0452 55.1794 33.0452V15.5664H49.8769Z" fill="#AFDAE1"/>
<path d="M34.641 23.5213V21.6635C34.641 18.2503 31.8984 15.4859 28.5121 15.4859H17.4318V25.895H17.4683V63.5065H22.9683V23.8382C22.9683 23.6466 22.9683 23.4549 22.9829 23.2706V19.9901H25.9523C26.0108 19.9901 26.062 19.9901 26.1205 19.9901C28.8047 19.9901 29.1411 21.7446 29.1411 23.8456V63.5212H34.641V23.8382C34.641 23.7277 34.6337 23.6318 34.6337 23.5213H34.641Z" fill="#AFDAE1"/>
</g>
</g>
<defs>
<filter id="filter0_d_62_145" x="-21.5" y="-22" width="124" height="124" filterUnits="userSpaceOnUse" color-interpolation-filters="sRGB">
<feFlood flood-opacity="0" result="BackgroundImageFix"/>
<feColorMatrix in="SourceAlpha" type="matrix" values="0 0 0 0 0 0 0 0 0 0 0 0 0 0 0 0 0 0 127 0" result="hardAlpha"/>
<feOffset/>
<feGaussianBlur stdDeviation="11"/>
<feComposite in2="hardAlpha" operator="out"/>
<feColorMatrix type="matrix" values="0 0 0 0 0 0 0 0 0 0 0 0 0 0 0 0 0 0 0.25 0"/>
<feBlend mode="normal" in2="BackgroundImageFix" result="effect1_dropShadow_62_145"/>
<feBlend mode="normal" in="SourceGraphic" in2="effect1_dropShadow_62_145" result="shape"/>
</filter>
<clipPath id="clip0_62_145">
<rect x="0.5" width="80" height="80" rx="12" fill="white"/>
</clipPath>
</defs>
</svg>
